<svg width="40" height="40" viewBox="0 0 40 40" fill="none" xmlns="http://www.w3.org/2000/svg">
<g id="Group 13">
<rect id="Rectangle" width="40" height="40" fill="#F16718"/>
<g id="TM 2">
<path id="TM" fill-rule="evenodd" clip-rule="evenodd" d="M10.6302 16.7014C10.6302 16.89 10.524 17 10.3419 17H8.0655C7.88339 17 7.77716 16.89 7.77716 16.7014V8.67143C7.77716 8.59286 7.73163 8.54571 7.65575 8.54571H5.28834C5.10623 8.54571 5 8.43571 5 8.24714V6.29857C5 6.11 5.10623 6 5.28834 6H13.1949C13.377 6 13.4832 6.11 13.4832 6.29857V8.24714C13.4832 8.43571 13.377 8.54571 13.1949 8.54571H10.7516C10.6757 8.54571 10.6302 8.59286 10.6302 8.67143V16.7014ZM17.2013 16.7014C17.2013 16.89 17.095 17 16.9129 17H14.6366C14.4545 17 14.3482 16.89 14.3482 16.7014V6.29857C14.3482 6.11 14.4545 6 14.6366 6H16.8978C17.0495 6 17.1709 6.06286 17.2468 6.20429L19.0831 9.3C19.1286 9.39429 19.2196 9.39429 19.2652 9.3L21.1014 6.20429C21.1773 6.06286 21.2987 6 21.4505 6H23.7117C23.8938 6 24 6.11 24 6.29857V16.7014C24 16.89 23.8938 17 23.7117 17H21.4353C21.2532 17 21.147 16.89 21.147 16.7014V11.1543C21.147 11.0286 21.0559 11.0129 20.9952 11.1071L20.0543 12.7257C19.9784 12.8671 19.857 12.93 19.7053 12.93H18.643C18.4912 12.93 18.3698 12.8671 18.2939 12.7257L17.353 11.1071C17.2923 11.0129 17.2013 11.0286 17.2013 11.1543V16.7014Z" fill="white"/>
</g>
</g>
</svg>
